:version 1.10
:name ASF
:units
  mass 1
  length 1
  angle deg
:documentation
  ASF file generated by Kaydara
:root
  axis xyz
  order  tx ty tz rx ry rz
  position 0 0 0
  orientation 0 0 0
:bonedata
  begin
    id 1
    name abdomenDummy
    direction 1 -1.27917e-005 -1.26829e-007
    length 1.79048
    axis 0 0 0 xyz
  end
  begin
    id 2
    name abdomen
    direction 0.987238 0.159249 -9.68575e-008
    length 8.61378
    axis 2.73208e-005 5.54953e-006 9.16328 xyz
    dof rx ry rz
  end
  begin
    id 3
    name chest
    direction 0 0 0
    length 0
    axis 2.65071e-005 8.63688e-006 2.59796 xyz
    dof rx ry rz
  end
  begin
    id 4
    name neckDummyDummy
    direction 0.998972 0.0453274 -1.50742e-007
    length 9.56202
    axis 2.65071e-005 8.63688e-006 2.59796 xyz
  end
  begin
    id 5
    name neckDummy
    direction 0.99977 0.0214525 -1.61748e-007
    length 1.93574
    axis 2.62932e-005 9.26758e-006 1.22924 xyz
    dof rx ry rz
  end
  begin
    id 6
    name neck
    direction 0.99928 -0.0379406 -1.88707e-007
    length 3.70367
    axis 2.56966e-005 1.08122e-005 -2.17436 xyz
    dof rx ry rz
  end
  begin
    id 7
    name head
    direction 0.992648 -0.121037 -2.25408e-007
    length 6.35158
    axis 2.47068e-005 1.29149e-005 -6.95196 xyz
    dof rx ry rz
  end
  begin
    id 8
    name figureHair
    direction -0.86681 -0.498639 -7.83376e-008
    length 8.29884
    axis -2.7515e-005 4.48842e-006 -150.09 xyz
    dof rx ry rz
  end
  begin
    id 9
    name lCollarDummy
    direction 0.994611 0.0451299 -0.0933417
    length 9.60395
    axis 2.65071e-005 8.63688e-006 2.59796 xyz
  end
  begin
    id 10
    name lCollar
    direction 0.0384146 0.00127577 -0.999261
    length 6.95318
    axis 90.4899 87.7973 1.90202 xyz
    dof rx ry rz
  end
  begin
    id 11
    name lShldr
    direction -0.030648 0.0920515 -0.995282
    length 9.61158
    axis -161.793 84.4324 108.415 xyz
    dof rx ry rz
  end
  begin
    id 12
    name lForeArm
    direction 0.000163956 -0.0977586 -0.99521
    length 8.6068
    axis 0.134773 84.3899 -89.8525 xyz
    dof rx ry rz
  end
  begin
    id 13
    name lHand
    direction -0.0190533 -0.1444 -0.989336
    length 7.61479
    axis -7.3729 81.6249 -97.517 xyz
    dof rx ry rz
  end
  begin
    id 14
    name rCollarDummy
    direction 0.994871 0.0442627 0.0909555
    length 9.60761
    axis 2.65071e-005 8.63688e-006 2.59796 xyz
  end
  begin
    id 15
    name rCollar
    direction 0.0334251 -4.74072e-007 0.999441
    length 6.97058
    axis -178.152 -88.0845 -0.000674207 xyz
    dof rx ry rz
  end
  begin
    id 16
    name rShldr
    direction -0.026922 0.0719509 0.997045
    length 9.60913
    axis 71.2822 -85.594 110.514 xyz
    dof rx ry rz
  end
  begin
    id 17
    name rForeArm
    direction 0.00134679 -0.118986 0.992895
    length 8.57176
    axis -88.7923 -83.1659 -89.3516 xyz
    dof rx ry rz
  end
  begin
    id 18
    name rHand
    direction -0.0185183 -0.0768601 0.99687
    length 7.69687
    axis -74.5596 -85.4655 -103.546 xyz
    dof rx ry rz
  end
  begin
    id 19
    name lThighDummy
    direction -0.236086 -0.0385456 -0.970967
    length 4.99155
    axis 0 0 0 xyz
  end
  begin
    id 20
    name lThigh
    direction -0.993968 0.0148998 -0.108653
    length 13.572
    axis -91.4001 6.23768 179.141 xyz
    dof rx ry rz
  end
  begin
    id 21
    name lShin
    direction -0.992341 0.0904576 -0.0841193
    length 18.5862
    axis -91.4558 4.82538 174.792 xyz
    dof rx ry rz
  end
  begin
    id 22
    name lFoot
    direction 0.0209381 -0.999771 -0.00453005
    length 8.44474
    axis 4.86759 0.259522 -88.8001 xyz
    dof rx ry rz
  end
  begin
    id 23
    name rThighDummy
    direction -0.236086 -0.0385456 0.970967
    length 4.99155
    axis 0 0 0 xyz
  end
  begin
    id 24
    name rThigh
    direction -0.993968 0.0148995 0.108653
    length 13.5721
    axis -89.7059 -6.2377 179.141 xyz
    dof rx ry rz
  end
  begin
    id 25
    name rShin
    direction -0.9925 0.0899962 0.0827255
    length 18.6716
    axis -89.2745 -4.74775 174.819 xyz
    dof rx ry rz
  end
  begin
    id 26
    name rFoot
    direction 0.0301721 -0.999545 9.70865e-005
    length 8.45013
    axis -2.50066e-005 -0.00555246 -88.271 xyz
    dof rx ry rz
  end
:hierarchy
  begin
    root abdomenDummy lThighDummy rThighDummy
    abdomenDummy abdomen
    abdomen chest
    chest neckDummyDummy lCollarDummy rCollarDummy
    neckDummyDummy neckDummy
    neckDummy neck
    neck head
    head figureHair
    lCollarDummy lCollar
    lCollar lShldr
    lShldr lForeArm
    lForeArm lHand
    rCollarDummy rCollar
    rCollar rShldr
    rShldr rForeArm
    rForeArm rHand
    lThighDummy lThigh
    lThigh lShin
    lShin lFoot
    rThighDummy rThigh
    rThigh rShin
    rShin rFoot
  end

:SAMPLES-PER-SECOND 25
:FULLY-SPECIFIED
:DEGREES
234
root  5.57846 36.9022 -5.17408 177.8 5.96106 90.6026
abdomen  1.83279 -6.2898 -8.64333
chest  2.68804 7.0544 -11.6864
neckDummy  9.09964e-021 0 8.72668e-016
neck  3.5893 10.7296 -17.5999
head  2.53574 -3.85789 -16.2381
figureHair  0 1.51661e-021 -9.5315e-016
lCollar  -5.15695e-016 -6.42944e-016 -7.59357e-014
lShldr  -10.1522 15.6762 -73.5485
lForeArm  32.1247 -83.1487 16.3536
lHand  0.254698 0.195082 5.2986
rCollar  1.7976e-016 -5.12864e-014 1.62755e-015
rShldr  -17.8681 71.5803 -11.9411
rForeArm  52.7218 0.572645 53.072
rHand  -4.10551 -38.6874 15.8348
lThigh  11.0044 -33.5012 -2.28335
lShin  43.6997 37.5879 2.41201
lFoot  -38.6149 -7.65377 -34.3897
rThigh  13.2396 -15.0232 -3.94214
rShin  9.94183 17.423 5.96704
rFoot  -5.18324 1.07388 3.41621
235
root  5.52898 36.8886 -5.16862 177.264 6.11131 90.7115
abdomen  1.63255 -6.97046 -7.76817
chest  2.57556 7.41256 -12.1121
neckDummy  9.09964e-021 0 8.72668e-016
neck  3.90128 11.0775 -18.0863
head  2.83359 -3.58862 -16.2427
figureHair  0 1.51661e-021 -9.5315e-016
lCollar  -5.15695e-016 -6.42944e-016 -7.59357e-014
lShldr  -10.2971 16.1747 -74.0241
lForeArm  32.9807 -82.9361 15.798
lHand  0.254698 0.195082 5.2986
rCollar  1.7976e-016 -5.12864e-014 1.62755e-015
rShldr  -19.7247 71.6683 -13.5154
rForeArm  52.7437 0.584594 52.4506
rHand  -4.08012 -38.6521 15.7762
lThigh  9.45358 -29.0802 0.292902
lShin  48.5549 31.0826 2.18486
lFoot  -42.5392 -5.71843 -27.3789
rThigh  13.3721 -15.0351 -4.19591
rShin  9.25777 17.3924 5.9557
rFoot  -3.64177 0.915487 4.05738
236
root  5.49942 36.9346 -5.1537 176.757 6.42635 90.9809
abdomen  1.30799 -7.27481 -6.67809
chest  2.32408 7.4582 -12.5379
neckDummy  9.09964e-021 0 8.72668e-016
neck  4.21492 11.4188 -18.5448
head  3.11587 -3.11818 -16.0937
figureHair  0 1.51661e-021 -9.5315e-016
lCollar  -5.15695e-016 -6.42944e-016 -7.59357e-014
lShldr  -10.3663 16.7957 -74.6253
lForeArm  32.7312 -82.9769 15.9065
lHand  0.254698 0.195082 5.2986
rCollar  1.7976e-016 -5.12864e-014 1.62755e-015
rShldr  -21.3347 71.4376 -15.0384
rForeArm  52.657 0.591762 52.0774
rHand  -4.12981 -38.6237 15.9188
lThigh  9.41525 -24.4471 1.28784
lShin  48.5178 25.2067 2.00105
lFoot  -40.6699 -3.2208 -21.4109
rThigh  13.3493 -15.2375 -4.32233
rShin  8.72226 16.9692 5.80466
rFoot  -4.56883 0.973681 3.33616
237
root  5.5011 37.0232 -5.15247 176.328 6.88033 91.4507
abdomen  0.914026 -7.29812 -5.49589
chest  1.99351 7.40005 -12.9445
neckDummy  9.09964e-021 0 8.72668e-016
neck  4.49834 11.6391 -18.6759
head  3.34676 -2.56865 -16.0268
figureHair  0 1.51661e-021 -9.5315e-016
lCollar  -5.15695e-016 -6.42944e-016 -7.59357e-014
lShldr  -10.1637 17.1947 -75.1242
lForeArm  32.1403 -83.0856 16.1895
lHand  0.254698 0.195082 5.2986
rCollar  1.7976e-016 -5.12864e-014 1.62755e-015
rShldr  -22.4637 71.0253 -16.522
rForeArm  52.4954 0.593579 51.9853
rHand  -4.22225 -38.5988 16.1764
lThigh  10.1754 -20.5519 0.844188
lShin  43.2858 21.3902 2.01784
lFoot  -33.1319 -1.27145 -16.9834
rThigh  13.1838 -15.5434 -4.3784
rShin  8.33881 16.1794 5.53475
rFoot  -5.99062 1.05344 2.35211
238
root  5.53136 37.107 -5.17756 176.294 7.10774 92.1321
abdomen  0.450437 -7.36274 -4.37826
chest  1.57584 7.18579 -13.1811
neckDummy  9.09964e-021 0 8.72668e-016
neck  4.66744 11.6667 -18.4526
head  3.45258 -2.02463 -16.2352
figureHair  0 1.51661e-021 -9.5315e-016
lCollar  -5.15695e-016 -6.42944e-016 -7.59357e-014
lShldr  -9.59003 17.1616 -75.3909
lForeArm  31.724 -83.1896 16.4704
lHand  0.254698 0.195082 5.2986
rCollar  1.7976e-016 -5.12864e-014 1.62755e-015
rShldr  -23.2176 70.4842 -18.1005
rForeArm  52.5055 0.592326 52.0549
rHand  -4.27657 -38.5645 16.3337
lThigh  9.65801 -18.1277 -0.495554
lShin  35.636 20.1589 2.54365
lFoot  -22.7401 -0.314792 -14.3014
rThigh  12.8816 -15.7778 -4.20208
rShin  8.41299 15.0225 5.38444
rFoot  -7.05556 1.08469 1.52017
239
root  5.59617 37.1478 -5.22357 176.935 7.01216 92.969
abdomen  -0.018552 -7.31886 -3.37544
chest  1.08138 6.42513 -13.3452
neckDummy  9.09964e-021 0 8.72668e-016
neck  4.62243 11.4453 -17.9965
head  3.35661 -1.60145 -16.5156
figureHair  0 1.51661e-021 -9.5315e-016
lCollar  -5.15695e-016 -6.42944e-016 -7.59357e-014
lShldr  -8.73723 16.6319 -75.4652
lForeArm  31.3148 -83.2918 16.7537
lHand  0.254698 0.195082 5.2986
rCollar  1.7976e-016 -5.12864e-014 1.62755e-015
rShldr  -23.221 69.8442 -19.2309
rForeArm  52.769 0.594083 51.9655
rHand  -4.22102 -38.4548 16.2155
lThigh  10.1301 -17.3979 -2.32474
lShin  25.2611 20.8882 2.45661
lFoot  -13.3036 -0.0313091 -13.058
rThigh  12.5515 -16.0922 -3.81761
rShin  9.14977 13.9606 5.44982
rFoot  -8.11852 1.11031 0.761857
